<mxfile host="app.diagrams.net" modified="2023-04-20T03:26:59.444Z" agent="5.0 (Windows NT 10.0; Win64; x64) AppleWebKit/537.36 (KHTML, like Gecko) Chrome/112.0.0.0 Safari/537.36" etag="EdG49Ma7Rapr4GQJoOak" version="20.3.3" type="github">
  <diagram id="40G4xeEeInN5oT3Qiyag" name="Page-1">
    <mxGraphModel dx="1752" dy="1206" grid="1" gridSize="10" guides="1" tooltips="1" connect="1" arrows="1" fold="1" page="1" pageScale="1" pageWidth="1100" pageHeight="850" math="0" shadow="0">
      <root>
        <mxCell id="0" />
        <mxCell id="1" parent="0" />
        <mxCell id="5nB6Xaa2qae9iJ706eIC-1" value="" style="shape=image;verticalLabelPosition=bottom;labelBackgroundColor=default;verticalAlign=top;aspect=fixed;imageAspect=0;image=data:image/svg+xml,PHN2ZyB4bWxucz0iaHR0cDovL3d3dy53My5vcmcvMjAwMC9zdmciIHhtbG5zOnhsaW5rPSJodHRwOi8vd3d3LnczLm9yZy8xOTk5L3hsaW5rIiB2aWV3Qm94PSIwIDAgNzggNzYiIHdpZHRoPSI3OCIgaGVpZ2h0PSI3NiI+PGRlZnMvPjxnIHRyYW5zZm9ybT0idHJhbnNsYXRlKDEuMDAwMDAwLDEuMDAwMDAwKSIgaWQ9Imdyb3VwMSI+PHBhdGggZD0iTS4wLC4wTDc2LjAsLjBMNzYuMCw3NC4wTC4wLDc0LjBMLjAsLjB6IiBpZD0ic2hhcGUyIiBmaWxsLXJ1bGU9Im5vbnplcm8iIGZpbGw9IiMxNDdlYmEiLz48cGF0aCB0cmFuc2Zvcm09InRyYW5zbGF0ZSgxNi41MDI4NjgsMTAuODA2NDc5KSIgZD0iTTQzLjAsMjguMEwzNC45LDE4LjJMNDMuMCw4LjVMNy41LDguNUw3LjUsNS43QzguOCw1LjMsOS43LDQuMiw5LjcsMi45QzkuNSwxLjIsOC4xLC4wLDYuNSwuMEM0LjgsLjAsMy40LDEuMiwzLjMsMi45QzMuMyw0LjIsNC4yLDUuMyw1LjUsNS43TDUuNSw1MC41TC4wLDUwLjVMLjAsNTIuNkwxMi44LDUyLjZMMTIuOCw1MC41TDcuNSw1MC41TDcuNSwyOC4wTDQzLjAsMjguMHpNNi40LDEuOUM2LjgsMS45LDcuMiwyLjEsNy40LDIuNUM3LjUsMi45LDcuNCwzLjMsNy4xLDMuNkM2LjksMy45LDYuNCwzLjksNi4wLDMuOEM1LjYsMy42LDUuNCwzLjMsNS40LDIuOUM1LjQsMi4zLDUuOSwxLjksNi40LDEuOXpNMzguNCwxMC42TDMyLjEsMTguMkwzOC40LDI1LjlMNy41LDI1LjlMNy41LDEwLjZMMzguNCwxMC42eiIgaWQ9InNoYXBlMyIgZmlsbC1ydWxlPSJub256ZXJvIiBmaWxsPSIjZmZmZmZmIi8+PC9nPjwvc3ZnPg==;" vertex="1" parent="1">
          <mxGeometry width="78" height="76" as="geometry" />
        </mxCell>
        <mxCell id="5nB6Xaa2qae9iJ706eIC-5" value="" style="verticalLabelPosition=bottom;html=1;verticalAlign=top;strokeWidth=1;align=center;outlineConnect=0;dashed=0;outlineConnect=0;shape=mxgraph.aws3d.application_server;fillColor=#ECECEC;strokeColor=#5E5E5E;aspect=fixed;" vertex="1" parent="1">
          <mxGeometry x="530" y="216" width="123" height="124" as="geometry" />
        </mxCell>
        <mxCell id="5nB6Xaa2qae9iJ706eIC-6" value="" style="verticalLabelPosition=bottom;html=1;verticalAlign=top;strokeWidth=1;align=center;outlineConnect=0;dashed=0;outlineConnect=0;shape=mxgraph.aws3d.application2;fillColor=#86E83A;strokeColor=#B0F373;aspect=fixed;" vertex="1" parent="1">
          <mxGeometry x="530" y="340" width="62" height="53" as="geometry" />
        </mxCell>
        <mxCell id="5nB6Xaa2qae9iJ706eIC-4" value="" style="verticalLabelPosition=bottom;html=1;verticalAlign=top;strokeWidth=1;align=center;outlineConnect=0;dashed=0;outlineConnect=0;shape=mxgraph.aws3d.application2;fillColor=#86E83A;strokeColor=#B0F373;aspect=fixed;" vertex="1" parent="1">
          <mxGeometry x="450" y="280" width="62" height="53" as="geometry" />
        </mxCell>
        <mxCell id="5nB6Xaa2qae9iJ706eIC-7" value="" style="verticalLabelPosition=bottom;html=1;verticalAlign=top;strokeWidth=1;align=center;outlineConnect=0;dashed=0;outlineConnect=0;shape=mxgraph.aws3d.client;aspect=fixed;strokeColor=none;fillColor=#777777;" vertex="1" parent="1">
          <mxGeometry x="130" y="510" width="60" height="104" as="geometry" />
        </mxCell>
        <mxCell id="5nB6Xaa2qae9iJ706eIC-8" value="" style="verticalLabelPosition=bottom;html=1;verticalAlign=top;strokeWidth=1;align=center;outlineConnect=0;dashed=0;outlineConnect=0;shape=mxgraph.aws3d.arrowNE;fillColor=#000000;aspect=fixed;" vertex="1" parent="1">
          <mxGeometry x="190" y="350" width="310" height="177.14" as="geometry" />
        </mxCell>
        <mxCell id="5nB6Xaa2qae9iJ706eIC-9" value="" style="fillColor=#999999;verticalLabelPosition=bottom;sketch=0;html=1;strokeColor=#ffffff;verticalAlign=top;align=center;points=[[0.145,0.145,0],[0.5,0,0],[0.855,0.145,0],[1,0.5,0],[0.855,0.855,0],[0.5,1,0],[0.145,0.855,0],[0,0.5,0]];pointerEvents=1;shape=mxgraph.cisco_safe.compositeIcon;bgIcon=ellipse;resIcon=mxgraph.cisco_safe.capability.load_balancer;" vertex="1" parent="1">
          <mxGeometry x="100" width="80" height="80" as="geometry" />
        </mxCell>
      </root>
    </mxGraphModel>
  </diagram>
</mxfile>
